<svg width="76" height="76" viewBox="0 0 76 76" fill="none" xmlns="http://www.w3.org/2000/svg">
<path d="M38 38V9.5" stroke="black" stroke-width="2" stroke-linecap="round" stroke-linejoin="round"/>
<path d="M62.6817 23.75L13.3183 52.25" stroke="black" stroke-width="2" stroke-linecap="round" stroke-linejoin="round"/>
<path d="M9.97518 43.2103C8.74123 36.5324 9.92845 29.6334 13.3236 23.7521C16.7188 17.8709 22.0996 13.3927 28.4995 11.1218V32.5153L9.97518 43.2103Z" stroke="black" stroke-width="2" stroke-linecap="round" stroke-linejoin="round"/>
<path d="M38 9.5C42.9933 9.50092 47.8986 10.8137 52.2249 13.3068C56.5512 15.8 60.1466 19.386 62.6509 23.7058C65.1553 28.0256 66.4808 32.9276 66.4946 37.9208C66.5085 42.9141 65.2103 47.8233 62.73 52.157C60.2496 56.4906 56.6743 60.0966 52.3619 62.6137C48.0495 65.1309 43.1515 66.4709 38.1583 66.4995C33.1652 66.5282 28.2521 65.2445 23.9111 62.777C19.5701 60.3096 15.9536 56.7449 13.4237 52.44" stroke="black" stroke-width="2" stroke-linecap="round" stroke-linejoin="round"/>
</svg>
