<svg width="67" height="67" viewBox="0 0 67 67" fill="none" xmlns="http://www.w3.org/2000/svg">
<path d="M42.3984 42.3984C47.3129 42.3984 51.2969 38.4145 51.2969 33.5C51.2969 28.5855 47.3129 24.6016 42.3984 24.6016C37.484 24.6016 33.5 28.5855 33.5 33.5C33.5 38.4145 37.484 42.3984 42.3984 42.3984Z" stroke="black" stroke-width="2" stroke-linecap="round" stroke-linejoin="round"/>
<path d="M33.5 24.6016V6.80493H24.6016C22.2416 6.80493 19.9782 7.74244 18.3094 9.41122C16.6406 11.08 15.7031 13.3434 15.7031 15.7034C15.7031 18.0634 16.6406 20.3267 18.3094 21.9955C19.9782 23.6643 22.2416 24.6018 24.6016 24.6018L33.5 24.6016Z" stroke="black" stroke-width="2" stroke-linecap="round" stroke-linejoin="round"/>
<path d="M33.5 42.3982V24.6016H24.6016C22.2416 24.6016 19.9782 25.5391 18.3094 27.2079C16.6406 28.8766 15.7031 31.14 15.7031 33.5C15.7031 35.86 16.6406 38.1234 18.3094 39.7921C19.9782 41.4609 22.2416 42.3984 24.6016 42.3984L33.5 42.3982Z" stroke="black" stroke-width="2" stroke-linecap="round" stroke-linejoin="round"/>
<path d="M33.5 24.6016V6.80493H42.3984C44.7584 6.80493 47.0218 7.74244 48.6906 9.41122C50.3594 11.08 51.2969 13.3434 51.2969 15.7034C51.2969 18.0634 50.3594 20.3267 48.6906 21.9955C47.0218 23.6643 44.7584 24.6018 42.3984 24.6018L33.5 24.6016Z" stroke="black" stroke-width="2" stroke-linecap="round" stroke-linejoin="round"/>
<path d="M33.5 42.3982V51.2967C33.5 53.0567 32.9782 54.7771 32.0004 56.2405C31.0226 57.7038 29.6329 58.8444 28.0069 59.5179C26.381 60.1914 24.5918 60.3677 22.8656 60.0243C21.1395 59.681 19.5539 58.8335 18.3095 57.5891C17.065 56.3446 16.2175 54.759 15.8741 53.0329C15.5308 51.3068 15.707 49.5176 16.3805 47.8916C17.054 46.2656 18.1945 44.8759 19.6578 43.8981C21.1212 42.9203 22.8416 42.3984 24.6016 42.3984L33.5 42.3982Z" stroke="black" stroke-width="2" stroke-linecap="round" stroke-linejoin="round"/>
</svg>
