<svg width="90" height="90" viewBox="0 0 90 90" fill="none" xmlns="http://www.w3.org/2000/svg">
<circle cx="64.125" cy="27.375" r="22.875" fill="#F84646"/>
<path d="M30.9377 56.25C41.0342 56.25 49.219 48.0652 49.219 37.9688C49.219 27.8723 41.0342 19.6875 30.9377 19.6875C20.8413 19.6875 12.6565 27.8723 12.6565 37.9688C12.6565 48.0652 20.8413 56.25 30.9377 56.25Z" stroke="black" stroke-width="2" stroke-miterlimit="10"/>
<path d="M54.6372 20.3688C57.1517 19.6603 59.7887 19.4989 62.3708 19.8955C64.9529 20.292 67.42 21.2372 69.606 22.6676C71.792 24.0979 73.6461 25.98 75.0434 28.1872C76.4407 30.3944 77.3489 32.8755 77.7066 35.4632C78.0643 38.0509 77.8634 40.6853 77.1173 43.1888C76.3712 45.6923 75.0972 48.0069 73.3813 49.9766C71.6653 51.9464 69.5472 53.5255 67.1695 54.6077C64.7919 55.6899 62.21 56.25 59.5976 56.2503" stroke="black" stroke-width="2" stroke-linecap="round" stroke-linejoin="round"/>
<path d="M5.62354 69.3973C8.47869 65.336 12.2691 62.0213 16.6747 59.7331C21.0804 57.4448 25.9719 56.2502 30.9363 56.25C35.9008 56.2498 40.7924 57.4441 45.1982 59.732C49.604 62.0199 53.3947 65.3343 56.2501 69.3953" stroke="black" stroke-width="2" stroke-linecap="round" stroke-linejoin="round"/>
<path d="M59.5977 56.25C64.5626 56.2464 69.4552 57.4392 73.8614 59.7274C78.2676 62.0156 82.0575 65.3319 84.9103 69.3954" stroke="black" stroke-width="2" stroke-linecap="round" stroke-linejoin="round"/>
</svg>
