<svg width="32" height="33" viewBox="0 0 32 33" fill="none" xmlns="http://www.w3.org/2000/svg">
<path d="M16 21.4434C18.7614 21.4434 21 19.2527 21 16.5503C21 13.8479 18.7614 11.6572 16 11.6572C13.2386 11.6572 11 13.8479 11 16.5503C11 19.2527 13.2386 21.4434 16 21.4434Z" stroke="white" stroke-width="2" stroke-miterlimit="10"/>
<path d="M21.5 5.2959H10.5C7.18629 5.2959 4.5 7.92476 4.5 11.1676V21.9325C4.5 25.1753 7.18629 27.8042 10.5 27.8042H21.5C24.8137 27.8042 27.5 25.1753 27.5 21.9325V11.1676C27.5 7.92476 24.8137 5.2959 21.5 5.2959Z" stroke="white" stroke-width="2" stroke-linecap="round" stroke-linejoin="round"/>
<path d="M22.5 11.6572C23.3284 11.6572 24 11 24 10.1892C24 9.37844 23.3284 8.72119 22.5 8.72119C21.6716 8.72119 21 9.37844 21 10.1892C21 11 21.6716 11.6572 22.5 11.6572Z" fill="white"/>
</svg>
