<svg width="32" height="33" viewBox="0 0 32 33" fill="none" xmlns="http://www.w3.org/2000/svg">
<path d="M26 5.78516H6C5.44772 5.78516 5 6.22329 5 6.76376V26.3358C5 26.8763 5.44772 27.3145 6 27.3145H26C26.5523 27.3145 27 26.8763 27 26.3358V6.76376C27 6.22329 26.5523 5.78516 26 5.78516Z" stroke="white" stroke-width="2" stroke-linecap="round" stroke-linejoin="round"/>
<path d="M15 14.5928V22.4219" stroke="white" stroke-width="2" stroke-linecap="round" stroke-linejoin="round"/>
<path d="M11 14.5928V22.4219" stroke="white" stroke-width="2" stroke-linecap="round" stroke-linejoin="round"/>
<path d="M15 18.018C15 17.1096 15.3687 16.2384 16.0251 15.596C16.6815 14.9536 17.5717 14.5928 18.5 14.5928C19.4283 14.5928 20.3185 14.9536 20.9749 15.596C21.6313 16.2384 22 17.1096 22 18.018V22.4219" stroke="white" stroke-width="2" stroke-linecap="round" stroke-linejoin="round"/>
<path d="M11 12.146C11.8284 12.146 12.5 11.4889 12.5 10.6782C12.5 9.86759 11.8284 9.21045 11 9.21045C10.1716 9.21045 9.5 9.86759 9.5 10.6782C9.5 11.4889 10.1716 12.146 11 12.146Z" fill="white"/>
</svg>
