<svg width="76" height="76" viewBox="0 0 76 76" fill="none" xmlns="http://www.w3.org/2000/svg">
<path d="M39.3095 56.6237L54.2826 66.11C56.1965 67.3226 58.5728 65.5192 58.0048 63.285L53.6788 46.2674C53.557 45.7935 53.5714 45.2947 53.7204 44.8286C53.8694 44.3624 54.147 43.9478 54.5212 43.6324L67.9481 32.457C69.7123 30.9886 68.8017 28.0607 66.535 27.9136L49.0004 26.7756C48.5281 26.7418 48.0752 26.5746 47.6942 26.2934C47.3133 26.0122 47.0201 25.6285 46.8487 25.1871L40.3091 8.71856C40.1313 8.25004 39.8152 7.84669 39.4028 7.56206C38.9904 7.27744 38.5011 7.125 38 7.125C37.4989 7.125 37.0097 7.27744 36.5972 7.56206C36.1848 7.84669 35.8687 8.25004 35.691 8.71856L29.1513 25.1871C28.98 25.6285 28.6867 26.0122 28.3058 26.2934C27.9249 26.5746 27.4719 26.7418 26.9996 26.7756L9.46498 27.9136C7.19832 28.0607 6.28772 30.9886 8.05196 32.457L21.4788 43.6324C21.853 43.9478 22.1306 44.3624 22.2796 44.8286C22.4286 45.2947 22.443 45.7935 22.3212 46.2674L18.3093 62.0494C17.6278 64.7303 20.4793 66.8945 22.776 65.4394L36.6905 56.6237C37.0818 56.3746 37.5361 56.2423 38 56.2423C38.4639 56.2423 38.9182 56.3746 39.3095 56.6237V56.6237Z" stroke="black" stroke-width="2" stroke-linecap="round" stroke-linejoin="round"/>
</svg>
