<svg width="32" height="33" viewBox="0 0 32 33" fill="none" xmlns="http://www.w3.org/2000/svg">
<path d="M5.99994 25.3573C5.99994 25.3573 10.9999 24.3787 11.9999 21.4429C11.9999 21.4429 3.99994 18.5072 5.99994 7.74275C5.99994 7.74275 9.99994 12.6357 15.9999 13.6143V11.6574C16.0001 10.5332 16.3957 9.44336 17.1203 8.57103C17.845 7.69869 18.8544 7.09711 19.979 6.86741C21.1036 6.63771 22.2747 6.79391 23.2954 7.30974C24.3161 7.82557 25.1242 8.66958 25.5839 9.69987L29.9999 9.69992L25.9999 13.6143C25.9999 20.4644 20.9999 27.3145 11.9999 27.3145C7.99994 27.3145 5.99994 25.3573 5.99994 25.3573Z" stroke="white" stroke-width="2" stroke-linecap="round" stroke-linejoin="round"/>
</svg>
